<svg width="195" height="236" viewBox="0 0 195 236" fill="none" xmlns="http://www.w3.org/2000/svg">
<path d="M147.001 -1.67512e-05C159.328 1.02488e-05 171.156 -0.0224131 182.983 0.00867694C189.812 0.0266289 194.99 5.15291 194.991 11.9568C195.007 82.5868 195.006 153.217 194.993 223.847C194.991 231.418 190.38 235.999 182.895 236C134.42 236.001 85.9456 236.001 37.4708 236.001C35.8335 236.001 34.1962 236.001 32.2812 236.001C32.2812 157.331 32.2812 78.9621 32.2812 -1.67512e-05C70.3451 -1.67512e-05 108.423 -1.67512e-05 147.001 -1.67512e-05ZM83.5014 168.001C108.567 168.001 133.632 168.001 159.001 168.001C159.001 160.622 159.607 152.741 158.736 145.026C158.325 141.391 155.903 136.937 152.972 134.818C141.199 126.303 127.658 121.62 113.17 121.159C99.8984 120.737 86.9364 123.672 75.4361 130.477C70.6163 133.329 63.4862 135.048 63.1163 142.425C62.6946 150.836 63.0188 159.285 63.0188 168.001C69.8887 168.001 76.1952 168.001 83.5014 168.001ZM133.17 96.3679C136.766 82.8843 130.349 70.9983 118.359 67.4202C104.665 63.3334 93.4622 68.8766 88.3374 82.5443C83.9448 94.2591 91.1634 107.859 103.033 111.954C114.502 115.911 128.9 109.748 133.17 96.3679Z" fill="white"/>
<path d="M20.0024 91.9992C20.0024 140.119 20.0024 187.738 20.0024 235.678C13.3939 235.678 6.99628 235.678 0.296875 235.678C0.296875 157.37 0.296875 79.0057 0.296875 0.320312C6.6045 0.320312 13.0022 0.320312 20.0024 0.320312C20.0024 30.674 20.0024 61.0866 20.0024 91.9992Z" fill="white"/>
</svg>
