<svg width="288" height="260" viewBox="0 0 288 260" fill="none" xmlns="http://www.w3.org/2000/svg">
<path d="M129 217.997C105.195 217.997 81.89 217.997 58.5545 217.997C58.3253 217.318 58.0144 216.861 58.049 216.431C59.4199 199.472 54.6213 183.453 50.6853 167.286C46.3702 149.561 42.198 131.801 38.0814 114.029C37.6533 112.181 38.0239 110.148 38.0239 107.413C57.5821 116.444 76.4751 125.167 95.2065 133.816C111.31 106.724 127.323 79.7842 143.973 51.7734C160.485 79.5094 176.477 106.373 192.783 133.764C211.398 125.193 230.357 116.462 250.891 107.008C249.269 114.508 248.021 120.608 246.625 126.674C242.785 143.358 239.089 160.078 234.938 176.685C231.592 190.073 228.823 203.466 230.258 217.997C196.344 217.997 162.922 217.997 129 217.997Z" fill="white"/>
<path d="M207.998 259.998C157.874 259.998 108.25 259.998 58.3125 259.998C58.3125 250.43 58.3125 241.029 58.3125 231.312C115.273 231.312 172.316 231.312 229.677 231.312C229.677 240.615 229.677 250.015 229.677 259.998C222.688 259.998 215.593 259.998 207.998 259.998Z" fill="white"/>
<path d="M147.725 38.783C146.467 40.6899 145.472 42.335 144.037 44.707C139.482 37.712 135.133 31.0832 130.862 24.4039C130.378 23.6465 129.828 22.2831 130.168 21.7451C134.451 14.9781 138.892 8.31127 143.992 0.554688C149.075 8.2696 154.046 14.6751 157.51 21.8121C158.466 23.7807 155.128 28.0464 153.391 31.0442C151.858 33.6913 149.809 36.0404 147.725 38.783Z" fill="white"/>
<path d="M285.715 79.6886C284.72 83.8635 283.522 87.6489 283.336 91.4834C283.138 95.5907 281.729 96.9244 277.54 97.3401C270.835 98.0055 264.237 99.7494 256.77 101.197C257.724 96.4804 258.566 92.291 259.422 88.1047C259.584 87.313 259.898 86.5433 259.983 85.7464C261.039 75.8973 261.031 75.895 270.804 73.9696C276.008 72.9444 281.213 71.9251 287.038 70.7812C286.634 73.975 286.296 76.6478 285.715 79.6886Z" fill="white"/>
<path d="M15.565 73.2216C16.2389 73.5886 16.4957 73.8574 16.7966 73.9225C19.6409 74.5381 23.1016 74.3473 25.1451 75.9598C26.7139 77.1977 26.4766 80.7015 27.082 83.1879C28.4813 88.9348 29.9045 94.6758 31.5596 101.401C26.3557 100.274 22.1653 99.3675 17.976 98.4561C17.3404 98.3178 16.718 98.0867 16.0763 98.013C6.3582 96.898 6.22218 96.9357 3.91921 87.542C2.62493 82.2628 1.86584 76.8523 0.785156 71.0703C5.97173 71.7766 10.57 72.4027 15.565 73.2216Z" fill="white"/>
</svg>
