<svg width="291" height="286" viewBox="0 0 291 286" fill="none" xmlns="http://www.w3.org/2000/svg">
<path d="M269.817 179.441C274.776 190.088 276.033 200.896 276.274 212.24C276.557 225.608 278.719 238.933 279.935 252.288C280.456 258.01 280.645 263.763 281.037 270.394C195.495 290.672 110.288 290.233 25.168 270.729C26.1973 259.383 27.1307 249.453 27.9921 239.516C29.322 224.176 30.1123 208.769 32.0441 193.506C33.9166 178.712 43.4392 169.025 55.9975 162.008C63.1712 158 70.4301 154.142 77.5336 150.014C78.637 149.373 79.9882 147.429 79.7435 146.463C77.1356 136.163 82.1194 129.326 89.9848 123.009C76.8777 106.067 73.5048 86.0793 76.5209 65.3698C79.1411 47.3785 87.9296 31.6884 101.872 19.768C132.521 -6.4353 172.323 -3.8804 198.336 14.9519C227.393 35.9879 243.895 79.1903 217.076 123.258C225.79 129.148 228.965 137.748 226.295 148.693C242.923 155.635 258.438 164.33 269.817 179.441ZM119.218 269.012C120.646 269.34 122.076 269.968 123.5 269.953C148.254 269.681 173.01 269.429 197.761 268.913C202.743 268.809 207.704 267.638 212.969 266.919C212.969 265.462 213.061 264.321 212.954 263.201C212.328 256.692 211.667 250.187 210.995 243.683C210.411 238.043 213.998 236.766 217.906 236.119C222.257 235.399 224.326 238.423 224.976 242.319C226.228 249.832 227.319 257.371 228.549 265.365C240.429 263.122 252.161 260.908 263.998 258.674C263.998 257.311 264.061 256.317 263.989 255.333C262.996 241.725 262.049 228.113 260.95 214.514C260.463 208.489 259.85 202.459 258.922 196.489C258.406 193.164 257.126 189.957 255.984 185.978C249.289 191.629 243.679 196.364 237.806 201.321C233.045 195.727 228.425 190.299 223.611 184.642C228.593 180.25 233.324 176.08 238.614 171.416C231.867 168.376 225.495 165.731 219.356 162.626C217.009 161.439 215.472 161.707 213.304 162.877C197.93 171.174 181.141 174.621 163.978 175.822C154.622 176.476 145.126 175.563 135.719 174.949C120.54 173.96 106.206 169.734 92.5572 163.022C91.2005 162.354 89.029 162.287 87.6545 162.893C81.1059 165.777 74.7021 168.99 68.2881 172.065C73.2862 176.551 77.8642 180.66 82.3958 184.727C77.3217 190.622 72.755 195.928 68.1309 201.3C61.9883 196.096 56.1926 191.186 49.425 185.452C44.3215 210.275 44.0485 234.61 41.6663 258.481C54.1968 260.843 65.8067 263.031 77.6032 265.255C78.1034 261.105 78.4811 257.377 79.018 253.671C79.6459 249.338 80.136 244.955 81.1995 240.722C82.1975 236.751 85.4408 235.496 89.2404 236.046C92.9442 236.582 95.0183 238.806 94.9986 242.705C94.9919 244.038 95.0974 245.38 94.9811 246.703C94.3986 253.325 93.7595 259.942 93.0823 267.181C101.643 267.799 109.957 268.4 119.218 269.012ZM181.463 118.001C180.139 118.068 178.3 117.597 177.576 118.291C173.209 122.473 167.882 120.788 162.924 120.929C158.474 121.056 155.612 116.633 156.949 112.278C158.97 105.696 169.364 103.113 175.363 107.941C180.165 111.806 185.467 109.436 190.554 109.676C190.993 109.697 191.768 108.544 191.909 107.841C192.388 105.451 192.924 103.021 192.953 100.601C193.069 90.7753 193.006 80.9472 193.007 71.1199C193.008 57.83 193.132 57.3671 180.317 53.8926C171.444 51.4872 162.188 49.4609 153.064 49.2807C141.412 49.0506 129.86 51.5136 118.786 55.6216C114.782 57.1069 112.592 58.9438 112.818 63.9926C113.353 75.9616 112.538 87.9927 113.116 99.9578C113.772 113.556 120.448 124.001 132.179 131.012C140.702 136.106 149.772 137.78 159.739 136.113C171.53 134.142 180.207 128.164 187.02 118.001C184.971 118.001 183.64 118.001 181.463 118.001ZM106.444 36.053C103.523 40.1185 100.603 44.1841 97.5678 48.4094C134.852 29.9159 171.271 29.6813 208.7 48.6557C205.409 44.1255 202.72 39.9718 199.552 36.2233C197.463 33.7521 194.758 31.7723 192.202 29.7305C179.318 19.4354 164.817 14.5221 148.16 15.9326C131.877 17.3113 118.379 24.142 106.444 36.053ZM184.66 157.078C192.726 153.915 200.871 150.935 208.812 147.483C211.416 146.351 211.97 140.029 210.158 137.733C207.465 134.323 204.751 135.724 201.855 137.601C195.363 141.811 189.035 146.383 182.167 149.881C168.721 156.729 153.899 156.255 139.69 154.535C124.735 152.725 111.431 145.619 100.458 135.084C96.1503 135.329 94.32 138.066 94.0948 141.666C93.8622 145.385 95.6792 148.025 99.5414 149.247C103.057 150.36 106.518 151.758 109.828 153.386C122.796 159.765 136.968 160.254 150.824 160.7C161.823 161.054 172.908 158.71 184.66 157.078Z" fill="white"/>
<path d="M266.659 102.745C269.305 98.8845 271.636 95.2218 274.002 91.5812C274.373 91.0105 274.866 90.1693 275.361 90.1268C275.863 90.0837 276.845 90.8129 276.919 91.3084C278.096 99.1596 284.342 102.689 290.396 107.063C284.904 112.305 277.165 115.833 276.677 124.763C271.542 118.747 266.392 112.715 261.172 106.601C262.183 105.889 264.27 104.419 266.659 102.745Z" fill="white"/>
<path d="M43.816 24.6811C45.9647 20.8608 47.8651 17.3144 50.2901 12.7891C52.5551 22.2308 58.0884 27.6849 65.8318 32.1602C57.4592 35.4528 52.7799 41.2719 50.5785 48.6059C45.7122 42.8297 40.8537 37.0628 35.8867 31.1672C37.836 29.5906 40.7018 27.2728 43.816 24.6811Z" fill="white"/>
<path d="M6.98409 131.001C4.28881 128.556 1.63303 126.48 0.0820312 125.267C3.24789 121.496 6.43754 117.73 9.5788 113.924C10.1885 113.185 10.6605 112.317 11.1065 111.462C11.8639 110.01 12.5502 108.521 13.2664 107.047C14.3075 108.66 15.1906 110.407 16.4195 111.861C19.9943 116.093 23.7077 120.207 26.8686 123.801C22.3198 129.435 17.4126 135.514 13.0489 140.919C11.3041 138.154 9.16384 134.762 6.98409 131.001Z" fill="white"/>
<path d="M111.007 209.171C109.868 199.678 117.174 191.344 127.859 191.799C145.295 192.541 162.786 191.994 180.253 192.001C188.644 192.005 194.867 197.976 194.966 206.311C195.07 215.127 195.033 223.945 194.978 232.761C194.934 239.69 188.379 248.528 179.547 248.196C161.606 247.523 143.622 247.995 125.655 247.995C117.575 247.996 111.128 241.748 111.02 233.603C110.915 225.619 111.004 217.633 111.007 209.171ZM135.536 233C150.273 233 165.011 233 179.688 233C179.688 224.003 179.688 215.614 179.688 207.298C161.667 207.298 143.958 207.298 126.311 207.298C126.311 215.993 126.311 224.382 126.311 233C129.264 233 131.906 233 135.536 233Z" fill="white"/>
</svg>
