<svg width="319" height="208" viewBox="0 0 319 208" fill="none" xmlns="http://www.w3.org/2000/svg">
<path d="M213.603 187.75C203.23 191.954 193.275 196.169 183.133 199.871C179.033 201.368 174.525 201.743 169.161 202.842C166.001 207.661 163.11 209.635 155.071 205.76C143.625 200.242 131.826 195.322 119.843 191.094C106.649 186.438 100.249 176.456 95.9949 164.215C94.621 160.262 93.1374 156.347 91.5627 152.027C89.313 155.336 86.7735 158.271 85.141 161.645C82.0629 168.006 72.5403 170.594 66.5022 168.106C51.4545 161.908 36.3363 155.881 21.3148 149.621C19.6467 148.926 17.9984 147.422 17.0688 145.86C14.3614 141.312 12.1232 136.656 6.42655 134.785C2.2261 133.406 0.904446 129.864 0.930051 125.395C1.07039 100.897 1.04411 76.3987 0.953373 51.901C0.938179 47.7987 2.40617 44.8947 6.19489 43.3829C27.6164 34.8351 49.0828 26.3994 70.4804 17.7925C82.6016 12.9169 94.4225 7.2216 106.734 2.90883C123.625 -3.00858 141.684 3.2668 147.77 21.3903C153.711 39.0829 150.454 56.0888 137.974 70.2874C131.922 77.1726 123.505 81.587 114.347 82.8199C103.214 84.3186 95.369 71.1746 97.2436 62.5093C98.4712 56.8347 100.99 51.8316 106.617 49.0334C107.366 48.661 107.668 47.3887 107.318 45.8106C100.331 48.6254 93.3368 51.4239 86.3585 54.2609C81.7255 56.1444 76.8791 57.6795 72.5999 60.1782C70.6429 61.3209 69.8225 64.4102 68.1077 67.2426C82.75 73.0917 96.749 78.5447 110.634 84.2738C121.976 88.9535 133.165 94.0023 144.452 98.8148C155.287 103.434 166.144 108.004 177.049 112.454C178.022 112.851 179.516 112.45 180.604 112.014C198.415 104.865 216.175 97.5893 233.998 90.4704C248.216 84.7911 262.31 78.6987 276.825 73.8984C287.271 70.4442 297.586 72.1733 306.328 79.8047C314.645 87.0647 318.09 96.0126 318.186 107.131C318.311 121.519 314.383 133.749 303.809 143.746C297.847 149.384 290.542 152.477 282.996 154.852C276.94 156.758 267.926 149.966 266.027 142.871C263.641 133.959 266.326 126.504 273.802 120.998C274.809 120.256 275.545 119.144 275.721 117.354C264.072 122.114 252.39 126.794 240.824 131.747C239.542 132.296 238.446 134.284 238.08 135.801C235.92 144.763 233.966 153.776 232.014 162.787C230.917 167.852 230.431 173.113 228.731 177.956C227.892 180.346 225.185 182.408 222.85 183.856C220.155 185.528 216.938 186.359 213.603 187.75ZM169.002 182.246C169.002 163.273 169.002 144.299 169.002 125.547C117.895 104.337 67.1152 83.2624 16.1422 62.108C16.1422 82.4484 16.1422 102.567 16.1422 122.646C21.1968 124.035 25.0823 126.138 26.5987 131.785C27.213 134.072 29.9314 136.446 32.2704 137.509C44.3039 142.976 56.5806 147.906 68.6407 153.317C71.543 154.62 72.7301 153.833 73.9654 151.405C75.8729 147.657 77.923 143.98 79.9725 140.306C83.3127 134.318 90.2641 132.113 96.3443 135.124C104.585 139.205 106.285 147.549 108.928 155.096C112.26 164.611 115.747 173.452 126.553 177.281C137.817 181.273 148.74 186.225 158.206 190.099C161.959 188.311 164.464 187.284 166.78 185.933C167.731 185.378 168.273 184.122 169.002 182.246ZM300.64 96.124C297.603 90.5657 292.523 87.7872 286.6 88.2015C281.579 88.5526 276.551 90.3359 271.76 92.115C263.004 95.3666 254.435 99.1204 245.761 102.598C228.758 109.416 211.796 116.341 194.702 122.924C184.092 127.011 183.998 126.766 183.998 137.915C183.998 152.849 183.998 167.784 183.998 182.845C193.949 178.949 203.51 175.261 213 171.399C213.894 171.036 214.703 169.667 214.947 168.624C218.029 155.414 220.963 142.169 224.024 128.954C224.896 125.187 225.634 121.273 229.904 119.519C243.614 113.885 257.185 107.884 271.063 102.706C275.639 100.999 280.634 101.135 285.432 104.703C294.566 111.497 294.457 128.365 283.18 134.091C281.947 134.717 281.522 136.937 280.723 138.417C300.151 130.49 307.581 114.164 300.64 96.124ZM56.9969 53.5954C58.6038 51.7378 59.8456 49.0657 61.877 48.1552C74.93 42.3043 88.0158 36.4723 101.372 31.3709C111.009 27.6901 118.69 31.601 122.188 38.7471C126.505 47.5645 123.536 56.8863 115.367 62.0121C114.062 62.8314 113.504 64.8425 112.6 66.3027C113.038 66.6203 113.475 66.9379 113.913 67.2554C119.818 65.0813 125.153 62.2614 129.098 56.8349C134.664 49.1793 135.624 40.53 134.893 31.6705C133.818 18.6537 120.942 12.5425 111.285 17.8154C105.128 21.1774 98.2128 23.1483 91.6446 25.7607C79.7227 30.5024 67.8014 35.2459 55.8887 40.0107C47.1156 43.5197 38.3564 47.0637 29.1285 50.7783C37.6499 54.3676 45.9748 57.8743 54.2516 61.3606C55.317 58.5934 56.1249 56.4952 56.9969 53.5954Z" fill="white"/>
<path d="M53.0136 89.0017C55.3205 89.907 57.1597 91.1543 59.1645 91.5393C68.982 93.4245 73.0457 102.634 72.9493 112.315C72.8758 119.707 72.9659 127.196 71.7997 134.452C70.8588 140.306 67.5184 141.294 62.0007 139.01C53.2299 135.378 44.2992 132.097 35.7153 128.072C32.9459 126.773 30.1545 123.991 28.9511 121.205C26.5293 115.6 25.2598 109.692 26.6921 103.243C27.6787 98.8009 26.9186 93.9789 27.0118 89.328C27.148 82.5356 31.3471 80.0488 37.5402 82.8113C42.494 85.0212 47.5896 86.9132 53.0136 89.0017Z" fill="white"/>
<path d="M113 137.994C113.327 132.268 113.121 126.933 114.135 121.841C115.112 116.938 117.952 116.043 122.588 117.937C131.665 121.644 140.843 125.121 149.799 129.101C153.429 130.714 156.038 133.482 157.16 137.909C159.921 148.804 159.443 159.666 157.933 170.573C157.276 175.318 153.337 177.217 148.809 175.355C139.605 171.57 130.286 168.037 121.243 163.899C115.116 161.096 113.463 155.16 113.043 148.96C112.807 145.486 113 141.982 113 137.994ZM127.998 139.895C128.233 143.313 127.163 148.4 128.968 149.81C133.02 152.978 138.499 154.321 143.998 156.663C143.998 152.595 144.22 149.589 143.903 146.641C143.747 145.197 142.943 143.184 141.821 142.597C137.998 140.595 133.923 139.058 129.877 137.522C129.495 137.377 128.637 138.485 127.998 139.895Z" fill="white"/>
</svg>
