<svg width="191" height="190" viewBox="0 0 191 190" fill="none" xmlns="http://www.w3.org/2000/svg">
<path d="M120.002 190.001C79.8783 190.001 40.2549 190.001 0.316406 190.001C0.316406 126.734 0.316406 63.6957 0.316406 0.328125C5.58977 0.328125 10.9882 0.328125 16.8118 0.328125C16.8118 57.619 16.8118 114.994 16.8118 172.789C74.6045 172.789 131.979 172.789 189.678 172.789C189.678 178.598 189.678 183.993 189.678 190.001C166.668 190.001 143.585 190.001 120.002 190.001Z" fill="white"/>
<path d="M173.765 77.3456C163.314 87.2715 153.101 97.3874 142.973 107.588C140.701 109.877 139.4 111.1 136.703 107.485C132.976 102.49 128.16 98.3082 123.807 93.7744C114.316 103.328 105.131 112.575 95.9582 121.807C89.7984 115.451 84.4992 109.982 79.0372 104.346C66.6453 116.778 54.7996 128.454 43.2371 140.404C40.2567 143.484 38.4171 143.412 35.707 140.317C32.9789 137.202 29.7634 134.514 27.2031 132.062C44.5065 114.774 61.5198 97.7767 78.838 80.4743C83.443 85.3793 88.7517 91.0341 94.0946 96.7252C103.909 86.7777 112.983 77.5809 122.044 68.397C127.928 74.5811 133.166 80.0856 138.302 85.4827C146.022 77.6906 152.859 70.7899 160.401 63.1768C155.374 58.3087 150.084 53.1847 144.077 47.3672C159.964 47.3672 174.773 47.3672 190.051 47.3672C190.051 62.5771 190.051 77.7172 190.051 94.5583C184.218 88.3703 179.126 82.9682 173.765 77.3456Z" fill="white"/>
</svg>
