<svg width="274" height="225" viewBox="0 0 274 225" fill="none" xmlns="http://www.w3.org/2000/svg">
<path d="M246.4 211.787C234.408 205.73 222.367 200.49 211.266 193.713C205.807 190.38 202.401 192.262 198.093 194.417C178.93 204.001 159.707 213.467 140.605 223.172C138.034 224.478 136.263 224.673 133.602 223.32C113.058 212.868 92.4194 202.599 71.7406 192.415C70.2567 191.684 67.8721 191.362 66.4985 192.043C49.5692 200.442 32.7744 209.111 15.8882 217.597C10.7828 220.163 5.50343 222.383 0.00186619 224.899C0.00186619 172.685 -0.0253248 121.037 0.127875 69.3886C0.13267 67.7724 1.6128 65.4035 3.05932 64.6624C23.8112 54.0302 44.6457 43.5566 65.5705 33.2689C67.2325 32.4517 70.0364 32.6164 71.7544 33.4581C92.4458 43.5953 113.068 53.876 133.603 64.3273C136.274 65.6871 138.062 65.5545 140.619 64.1775C147.009 60.7368 153.641 57.7454 160.127 54.5977C163.234 61.361 166.122 67.6463 169.297 74.556C162.768 77.7481 156.409 81.0508 149.881 83.9753C146.014 85.7075 143.802 87.5063 143.848 92.5199C144.148 125.507 144.002 158.498 144.002 191.488C144.002 193.123 144.002 194.759 144.002 196.63C161.556 187.98 178.873 179.516 196.071 170.816C197.183 170.254 197.902 167.889 197.92 166.353C198.068 154.025 198.003 141.695 198.003 129.365C198.003 127.737 198.003 126.109 198.003 124.236C203.111 124.236 207.842 124.236 213 124.236C213 137.161 213.034 149.943 212.981 162.724C212.963 166.97 212.618 170.128 218.28 172.416C229.582 176.984 240.148 183.369 251.03 188.981C251.577 189.263 252.233 189.33 253.001 189.542C253.001 153.913 253.043 118.434 252.86 82.9562C252.851 81.3885 251.057 79.4539 249.591 78.3705C247.966 77.1688 245.534 77.0615 243.9 75.8667C242.979 75.1939 242.233 72.9793 242.654 71.9904C245.111 66.2272 247.936 60.6214 250.94 54.3284C258.245 58.2277 265.374 61.9588 272.397 65.8801C273.229 66.345 273.935 67.8497 273.937 68.8734C274 120.524 273.982 172.174 273.957 223.824C273.957 224.115 273.745 224.405 273.57 224.853C264.614 220.553 255.677 216.262 246.4 211.787ZM93.9568 178.443C105.853 184.531 117.749 190.619 130.001 196.889C130.001 160.996 129.948 125.848 130.094 90.7002C130.107 87.64 128.914 86.2058 126.481 85.0883C122.832 83.4122 119.185 81.7259 115.596 79.9263C107.972 76.1036 100.407 72.1643 92.7786 68.3513C87.3269 65.6263 81.8113 63.0291 76.0019 60.2189C76.0019 96.2034 75.9883 131.817 76.0629 167.43C76.0653 168.583 76.6555 170.36 77.5029 170.784C82.6822 173.373 88.0151 175.656 93.9568 178.443ZM61.0035 142.496C61.0035 115.201 61.0035 87.9063 61.0035 60.2116C55.0075 63.217 49.2739 66.0979 43.5338 68.966C37.4916 71.9849 31.5619 75.2736 25.3487 77.8873C22.1317 79.2406 20.8999 80.7326 20.9157 84.3193C21.0625 117.617 21.0025 150.916 21.0025 184.215C21.0025 185.957 21.0025 187.7 21.0025 189.822C22.3406 189.213 23.2339 188.848 24.0902 188.411C34.838 182.922 45.4199 177.066 56.4058 172.105C60.6179 170.203 61.2127 167.861 61.0722 163.972C60.8259 157.155 61.0035 150.322 61.0035 142.496Z" fill="white"/>
<path d="M224.013 83.906C220.318 91.5012 216.883 98.8281 212.927 105.862C211.564 108.284 209.238 110.766 206.757 111.818C202.928 113.44 199.869 110.587 198.298 107.493C192.973 97.0101 188.024 86.3334 183.022 75.6883C179.589 68.3824 176.502 60.9086 172.918 53.6797C162.138 31.9367 173.01 5.23582 199.207 1.29894C226.467 -2.79759 247.85 20.9349 240.694 46.9643C237.864 57.2586 231.77 66.6536 227.185 76.469C226.098 78.7976 225.105 81.1703 224.013 83.906ZM210.366 23.8006C198.964 19.881 190.183 29.518 191.068 38.4365C191.704 44.8522 197.653 50.5881 203.505 51.0039C212.077 51.613 217.352 47.6388 219.653 38.8372C221.085 33.3575 217.495 27.0703 210.366 23.8006Z" fill="white"/>
</svg>
