<svg width="317" height="192" viewBox="0 0 317 192" fill="none" xmlns="http://www.w3.org/2000/svg">
<path d="M41.1677 155.874C41.1125 142.048 41.0195 128.223 41.0097 114.397C40.9862 81.239 40.9996 48.0811 41.0028 14.9232C41.0037 6.10998 46.9473 0.00619256 55.5714 0.00530756C123.887 -0.00167344 192.202 -0.00218451 260.517 0.00627649C268.856 0.00730649 274.995 6.16363 274.996 14.5106C274.998 61.3314 274.987 108.152 274.385 155.449C232.023 155.95 190.257 155.999 148.492 155.992C112.717 155.987 76.9424 155.916 41.1677 155.874ZM62.9997 35.5064C62.9997 69.1994 62.9997 102.892 62.9997 136.296C126.627 136.296 189.652 136.296 252.712 136.296C252.712 98.0827 252.712 59.6835 252.712 21.2964C189.372 21.2964 126.322 21.2964 62.9997 21.2964C62.9997 25.8937 62.9997 30.2017 62.9997 35.5064Z" fill="white"/>
<path d="M118 192.003C84.0162 192.003 50.5324 192.003 17.0487 192.003C5.06099 192.003 -0.0562215 186.919 0.000465533 175.066C0.00595653 173.918 0.00119843 172.77 0.00119843 171.313C45.9415 171.313 91.666 171.313 137.869 171.313C136.958 176.652 140.011 177.266 144.533 177.108C153.684 176.788 162.859 176.847 172.015 177.087C176.224 177.197 179.07 176.598 177.957 171.242C223.963 171.242 269.706 171.242 315.432 171.242C318.019 181.73 313.181 189.097 306.182 191.267C304.51 191.786 302.673 191.973 300.911 191.974C240.108 192.009 179.304 192.003 118 192.003Z" fill="white"/>
<path d="M180.903 122.02C170.446 127.694 159.64 127.872 148.618 126.256C129.407 123.438 117.536 111.115 111.888 93.9577C106.51 77.623 109.132 61.3437 120.914 47.5926C127.123 40.3461 134.509 34.311 143.808 32.3057C155.532 29.7774 167.49 29.2556 178.829 34.9551C192.738 41.947 201.436 53.1023 205.499 67.9682C210.211 85.2112 202.24 106.766 187.489 117.157C185.349 118.664 183.348 120.367 180.903 122.02ZM171.848 42.3732C171.333 42.2626 170.818 42.152 170.303 42.0413C170.07 42.342 169.837 42.6426 169.604 42.9432C170.158 43.1736 170.712 43.4039 171.719 44.1703C175.34 51.4914 179.528 58.5954 182.441 66.1882C186.153 75.8647 185.709 76.0352 197.425 74.4774C196.597 71.336 196.159 68.1185 194.918 65.249C190.368 54.7362 183.878 46.0605 171.848 42.3732ZM145.045 113.564C137.757 104.642 133.686 94.26 131.826 83.1823C127.274 83.1823 123.315 83.1823 118.463 83.1823C119.384 86.6063 119.894 89.759 121.067 92.6416C125.425 103.345 132.34 111.619 143.783 115.22C144.223 115.358 144.98 114.486 145.045 113.564ZM141.982 48.5237C143.349 46.5342 144.717 44.5447 146.532 41.9026C130.628 46.6388 117.901 62.5125 119.487 74.84C123.425 74.84 127.386 74.84 130.178 74.84C134.071 65.9198 137.754 57.4806 141.982 48.5237ZM186.931 82.9985C185.953 84.2061 184.619 85.269 184.059 86.6465C181.705 92.4392 179.86 98.4523 177.28 104.136C175.439 108.189 172.724 111.845 170.16 116.074C186.503 111.608 197.328 94.0728 196.705 82.995C193.769 82.995 190.803 82.995 186.931 82.9985ZM165.009 49.5097C164.109 48.5198 163.208 47.53 162.209 46.4322C162.209 56.0146 162.209 65.2881 162.209 74.6138C166.92 74.6138 171.408 74.6138 175.926 74.6138C174.942 65.0908 170.72 57.354 165.009 49.5097ZM169.027 101.609C171.653 95.6952 174.278 89.7817 177.125 83.3716C171.175 83.3716 166.635 83.3716 162.203 83.3716C162.203 92.6423 162.203 101.535 162.203 112.094C165.009 108.042 166.978 105.2 169.027 101.609ZM147.979 54.5325C144.492 60.8283 140.707 67.0277 141.065 74.7159C145.564 74.7159 149.637 74.7159 153.665 74.7159C153.665 65.4485 153.665 56.4669 153.665 46.5751C151.592 49.5651 150.052 51.7867 147.979 54.5325ZM154.002 93.5177C154.002 90.0947 154.002 86.6716 154.002 83.2417C149.347 83.2417 145.272 83.2417 140.793 83.2417C141.608 94.2263 146.85 102.693 154.002 111.416C154.002 105.072 154.002 99.7915 154.002 93.5177Z" fill="white"/>
</svg>
