<svg width="139" height="30" viewBox="0 0 139 30" fill="none" xmlns="http://www.w3.org/2000/svg">
<path d="M50.8669 7.9579C51.2711 7.9579 51.6275 7.87011 51.9366 7.69451C52.2455 7.5196 52.4847 7.29207 52.654 7.0116C52.8233 6.73181 52.9081 6.44757 52.9081 6.15822C52.9081 5.83196 52.7923 5.56925 52.5603 5.3694C52.3287 5.16955 52.0257 5.06945 51.6512 5.06945H49.8955L49.2982 7.9579H50.8669ZM44.6367 15.0357L47.3016 2.07031H52.3019C53.11 2.07031 53.8082 2.22097 54.3966 2.52228C54.9849 2.82394 55.4333 3.24824 55.7425 3.79587C56.0514 4.3435 56.2061 4.98029 56.2061 5.7059C56.2061 6.54255 55.986 7.36587 55.5465 8.17484C55.1067 8.98381 54.4679 9.64964 53.6301 10.1723C52.7923 10.6957 51.8116 10.9567 50.6887 10.9567H48.6831L47.8453 15.0357H44.6367Z" fill="white"/>
<path d="M60.4016 8.39724H62.0005C62.3486 8.39724 62.667 8.29616 62.9558 8.09364C63.2446 7.89076 63.4721 7.63364 63.6375 7.3212C63.803 7.00875 63.8859 6.69999 63.8859 6.39418C63.8859 6.02898 63.7833 5.74531 63.5786 5.54242C63.3739 5.3399 63.1116 5.23846 62.7916 5.23846H60.9655L60.4016 8.39724ZM66.3267 8.64144C65.8777 9.47513 65.2549 10.138 64.4582 10.6294L65.7628 16H62.5224L61.5547 11.5162C61.3413 11.5295 61.1758 11.5361 61.058 11.5361H59.8376L59.0297 16H56L58.5162 2H63.3892C64.1018 2 64.7318 2.15788 65.2786 2.47328C65.8257 2.78905 66.2494 3.2343 66.5495 3.80865C66.8498 4.38338 67 5.04922 67 5.80655C67 6.86267 66.7754 7.80776 66.3267 8.64144Z" fill="white"/>
<path d="M76.4183 16H67L69.7183 2H79L78.373 5.23846H72.3636L71.9365 7.42043H76.6364L76.0545 10.4198H71.3546L70.9003 12.7619H77.0457L76.4183 16Z" fill="white"/>
<path d="M81.4399 15.2836C80.6567 14.8053 80.0545 14.1225 79.6329 13.2335C79.211 12.3448 79 11.2983 79 10.0944C79 8.73131 79.3004 7.42481 79.9017 6.17633C80.5024 4.92786 81.3321 3.91959 82.3909 3.15154C83.4497 2.38385 84.6266 2 85.9226 2C86.8433 2 87.6483 2.17866 88.3375 2.53526C89.0267 2.89222 89.5808 3.38256 90 4.00697L87.8993 6.5202C87.6179 6.15723 87.294 5.86076 86.9272 5.63152C86.5607 5.40192 86.1045 5.28729 85.5586 5.28729C84.9135 5.28729 84.3192 5.48187 83.7764 5.87067C83.2332 6.25912 82.803 6.78624 82.4861 7.45205C82.1689 8.11786 82.0106 8.84593 82.0106 9.63556C82.0106 10.2791 82.1181 10.8334 82.333 11.2983C82.5483 11.7635 82.8444 12.1155 83.2222 12.3547C83.5997 12.5935 84.0256 12.7127 84.4998 12.7127C85.0072 12.7127 85.4468 12.6236 85.8192 12.4453C86.1915 12.2669 86.5289 12.0405 86.8323 11.7667L88.1639 14.1848C87.557 14.7643 86.9079 15.2118 86.2163 15.527C85.524 15.8426 84.8526 16 84.2022 16C83.1435 16 82.2228 15.7616 81.4399 15.2836Z" fill="white"/>
<path d="M92.8238 16H89L92.1762 2H96L92.8238 16Z" fill="white"/>
<path d="M99.7028 14.8803L100.603 8.99982H97.9262L104.297 3.11969L103.397 8.99982H106.074L99.7028 14.8803ZM107.376 4.8017C106.96 3.89977 106.364 3.20743 105.587 2.72467C104.81 2.2412 103.896 2 102.845 2C101.57 2 100.409 2.38542 99.361 3.15627C98.3133 3.92748 97.491 4.93456 96.8946 6.17858C96.2981 7.42295 96 8.72026 96 10.0698C96 11.2854 96.2081 12.3393 96.6241 13.2317C97.0398 14.124 97.6348 14.8086 98.4093 15.2849C99.1835 15.7616 100.096 16 101.146 16C102.427 16 103.591 15.6178 104.639 14.8533C105.687 14.0889 106.509 13.091 107.105 11.8598C107.702 10.6282 108 9.34084 108 7.99736C108 6.76933 107.792 5.70364 107.376 4.8017Z" fill="white"/>
<path d="M110.307 15.3671C109.425 14.9453 108.656 14.3316 108 13.5257L110.293 11.3301C110.777 11.8033 111.315 12.1658 111.907 12.4182C112.5 12.6709 113.092 12.7973 113.685 12.7973C114.264 12.7973 114.672 12.6979 114.908 12.5002C115.143 12.3017 115.261 12.0749 115.261 11.8193C115.261 11.2183 114.592 10.6748 113.255 10.1889C112.414 9.88214 111.686 9.42669 111.072 8.82251C110.457 8.21832 110.15 7.41463 110.15 6.41107C110.15 5.75896 110.3 5.09869 110.603 4.4306C110.906 3.76287 111.436 3.19063 112.194 2.71423C112.952 2.2382 113.965 2 115.232 2C116.239 2 117.148 2.17749 117.96 2.53213C118.772 2.88711 119.452 3.37451 120 3.99467L117.717 6.32446C117.36 6.01775 116.95 5.75257 116.489 5.52858C116.027 5.30493 115.538 5.19311 115.022 5.19311C114.57 5.19311 114.234 5.28292 114.014 5.46184C113.794 5.64075 113.685 5.85481 113.685 6.10401C113.685 6.36635 113.826 6.61413 114.11 6.84735C114.393 7.08058 114.863 7.30919 115.519 7.53284C116.563 7.89066 117.37 8.38126 117.936 9.00461C118.503 9.62797 118.787 10.3809 118.787 11.2627C118.787 11.9918 118.587 12.7206 118.189 13.4494C117.791 14.1778 117.17 14.7852 116.326 15.2712C115.483 15.7572 114.436 16 113.188 16C112.15 16 111.189 15.7888 110.307 15.3671Z" fill="white"/>
<path d="M47.1054 29.3348C46.1086 28.8906 45.3421 28.2566 44.8055 27.4311C44.2685 26.6059 44 25.6341 44 24.5162C44 23.2505 44.3823 22.0373 45.1476 20.878C45.9122 19.7187 46.9682 18.7825 48.3157 18.0693C49.6632 17.3564 51.1611 17 52.8106 17C53.9824 17 55.0069 17.1659 55.884 17.497C56.7612 17.8285 57.4665 18.2838 58 18.8636L55.3264 21.1973C54.9683 20.8603 54.556 20.585 54.0892 20.3721C53.6227 20.1589 53.0421 20.0525 52.3473 20.0525C51.5263 20.0525 50.7699 20.2332 50.079 20.5942C49.3877 20.9549 48.8402 21.4444 48.4369 22.0626C48.0332 22.6809 47.8317 23.3569 47.8317 24.0902C47.8317 24.6877 47.9685 25.2025 48.242 25.6341C48.516 26.0661 48.8928 26.393 49.3737 26.6151C49.8541 26.8368 50.3962 26.9475 50.9998 26.9475C51.6455 26.9475 52.2051 26.8647 52.6789 26.6992C53.1528 26.5336 53.5822 26.3234 53.9684 26.0691L55.6631 28.3144C54.8907 28.8525 54.0646 29.2681 53.1843 29.5608C52.3033 29.8538 51.4487 30 50.621 30C49.2735 30 48.1018 29.7786 47.1054 29.3348Z" fill="white"/>
<path d="M62.2601 21.5549L60.2299 25.1958H63.033L62.5676 21.5549L62.5397 20.9635H62.5207L62.2601 21.5549ZM67 30H63.6384L63.3774 27.9675H58.6841L57.5481 30H54L61.8316 17H64.765L67 30Z" fill="white"/>
<path d="M76.4173 30H69L71.3542 17H74.1887L72.4173 26.8171H77L76.4173 30Z" fill="white"/>
<path d="M81.2776 30H78L80.7224 17H84L81.2776 30Z" fill="white"/>
<path d="M92.9877 30H82L85.1713 17H96L95.2681 20.0071H88.2573L87.7591 22.0333H93.2422L92.5633 24.8184H87.0802L86.5502 26.9932H93.7196L92.9877 30Z" fill="white"/>
<path d="M97.2133 30H94L96.745 17H99.8666L103.236 24.3468L104.787 17H108L105.255 30H102.446L98.8477 22.2463L97.2133 30Z" fill="white"/>
<path d="M113.15 30H109.507L111.815 20.0996H108L108.718 17H120L119.282 20.0996H115.457L113.15 30Z" fill="white"/>
<path d="M127.633 30H119L121.491 17H130L129.425 20.0071H123.917L123.525 22.0333H127.833L127.3 24.8184H122.991L122.575 26.9932H128.208L127.633 30Z" fill="white"/>
<path d="M130.115 29.4123C129.306 29.0207 128.601 28.4507 128 27.7025L130.102 25.6637C130.545 26.1031 131.039 26.4397 131.582 26.674C132.125 26.9087 132.668 27.0261 133.211 27.0261C133.742 27.0261 134.116 26.9338 134.332 26.7502C134.548 26.5659 134.656 26.3553 134.656 26.1179C134.656 25.5599 134.043 25.0552 132.817 24.6039C132.046 24.3191 131.379 23.8962 130.816 23.3352C130.252 22.7742 129.971 22.0279 129.971 21.096C129.971 20.4905 130.109 19.8774 130.386 19.257C130.664 18.6369 131.15 18.1056 131.845 17.6632C132.539 17.2212 133.468 17 134.63 17C135.552 17 136.386 17.1648 137.13 17.4941C137.875 17.8237 138.498 18.2763 139 18.8522L136.907 21.0156C136.58 20.7308 136.205 20.4845 135.781 20.2765C135.358 20.0689 134.91 19.965 134.437 19.965C134.022 19.965 133.714 20.0484 133.513 20.2146C133.311 20.3807 133.211 20.5795 133.211 20.8109C133.211 21.0545 133.341 21.2845 133.601 21.5011C133.86 21.7177 134.291 21.93 134.892 22.1376C135.85 22.4699 136.589 22.9255 137.108 23.5043C137.628 24.0831 137.888 24.7823 137.888 25.6011C137.888 26.2781 137.705 26.9549 137.34 27.6316C136.975 28.308 136.406 28.872 135.633 29.3233C134.859 29.7745 133.9 30 132.756 30C131.804 30 130.924 29.8039 130.115 29.4123Z" fill="white"/>
<path d="M9.49257 27.3446L11.8 14.8607H4.93799L21.2714 2.37695L18.9637 14.8607H25.826L9.49257 27.3446ZM29.1643 5.94836C28.0976 4.03345 26.5687 2.56364 24.5772 1.53855C22.5848 0.512653 20.2424 0 17.5488 0C14.2801 0 11.3028 0.818088 8.61647 2.45466C5.93036 4.09163 3.82255 6.23049 2.29365 8.87144C0.764551 11.5132 0 14.2667 0 17.1324C0 19.713 0.533436 21.9503 1.59969 23.8445C2.66553 25.7387 4.19072 27.1926 6.17629 28.2037C8.16083 29.2157 10.5002 29.7215 13.1937 29.7215C16.4764 29.7215 19.4605 28.9098 22.1464 27.2874C24.8326 25.6644 26.9406 23.5462 28.4697 20.9318C29.9988 18.3173 30.7631 15.5843 30.7631 12.732C30.7631 10.1249 30.2299 7.86328 29.1643 5.94836Z" fill="white"/>
</svg>
