<svg width="31" height="30" viewBox="0 0 31 30" fill="none" xmlns="http://www.w3.org/2000/svg">
<path d="M9.49257 27.3446L11.8 14.8607H4.93799L21.2714 2.37695L18.9637 14.8607H25.826L9.49257 27.3446ZM29.1643 5.94836C28.0976 4.03345 26.5687 2.56364 24.5772 1.53855C22.5848 0.512653 20.2424 0 17.5488 0C14.2801 0 11.3028 0.818088 8.61647 2.45466C5.93036 4.09163 3.82255 6.23049 2.29365 8.87144C0.764551 11.5132 0 14.2667 0 17.1324C0 19.713 0.533436 21.9503 1.59969 23.8445C2.66553 25.7387 4.19072 27.1926 6.17629 28.2037C8.16083 29.2157 10.5002 29.7215 13.1937 29.7215C16.4764 29.7215 19.4605 28.9098 22.1464 27.2874C24.8326 25.6644 26.9406 23.5462 28.4697 20.9318C29.9988 18.3173 30.7631 15.5843 30.7631 12.732C30.7631 10.1249 30.2299 7.86328 29.1643 5.94836Z" fill="black"/>
</svg>
