<svg width="126" height="76" viewBox="0 0 126 76" fill="none" xmlns="http://www.w3.org/2000/svg">
<path d="M31.712 0.143997C38.7947 0.143997 44.6827 1.08266 49.376 2.96C54.0693 4.752 57.7813 8.42133 60.512 13.968C63.2427 19.4293 64.608 27.408 64.608 37.904C64.608 47.9733 63.2853 55.7813 60.64 61.328C57.9947 66.7893 54.2827 70.544 49.504 72.592C44.8107 74.64 38.9227 75.664 31.84 75.664C21.6 75.664 13.7493 72.976 8.288 67.6C2.82667 62.1387 0.0960002 52.7947 0.0960002 39.568C0.0960002 26.256 2.74133 16.3573 8.032 9.87199C13.3227 3.38666 21.216 0.143997 31.712 0.143997ZM32.48 59.152C36.7467 59.152 39.52 57.488 40.8 54.16C42.08 50.7467 42.72 45.4133 42.72 38.16C42.72 30.736 41.952 25.2747 40.416 21.776C38.88 18.192 35.9787 16.4 31.712 16.4C28.7253 16.4 26.72 16.912 25.696 17.936C24.928 18.7893 24.2453 21.3493 23.648 25.616C23.136 29.8827 22.88 34.2347 22.88 38.672C22.88 46.1813 23.6053 51.472 25.056 54.544C26.592 57.616 29.0667 59.152 32.48 59.152ZM108.814 36.752C114.873 37.1787 119.225 38.8853 121.87 41.872C124.515 44.8587 125.838 48.5707 125.838 53.008C125.838 59.408 123.449 64.784 118.67 69.136C113.891 73.4027 106.254 75.536 95.758 75.536C88.6753 75.536 80.782 74.8533 72.078 73.488L74.638 59.408C82.318 59.7493 87.3527 59.92 89.742 59.92C94.4353 59.92 97.8487 59.3227 99.982 58.128C102.201 56.9333 103.31 54.5867 103.31 51.088C103.31 48.6133 102.499 46.7787 100.878 45.584C99.342 44.304 97.1233 43.4933 94.222 43.152C91.3207 42.8107 87.182 42.64 81.806 42.64V30.736C87.182 30.736 91.2353 30.608 93.966 30.352C96.782 30.0107 98.9153 29.2853 100.366 28.176C101.902 27.0667 102.67 25.3173 102.67 22.928C102.67 20.88 102.627 19.2587 102.542 18.064C102.457 16.8693 102.158 16.1013 101.646 15.76C100.963 15.3333 97.934 15.12 92.558 15.12C87.694 15.12 81.7633 15.2907 74.766 15.632L73.486 2.064C82.7873 0.783997 90.254 0.143997 95.886 0.143997C104.078 0.143997 110.777 1.72266 115.982 4.88C121.273 8.03733 123.918 13.1573 123.918 20.24C123.918 23.824 122.723 27.2373 120.334 30.48C118.03 33.6373 114.19 35.6 108.814 36.368V36.752Z" fill="black"/>
</svg>
