<svg width="110" height="76" viewBox="0 0 110 76" fill="none" xmlns="http://www.w3.org/2000/svg">
<path d="M31.712 0.143997C38.7947 0.143997 44.6827 1.08266 49.376 2.96C54.0693 4.752 57.7813 8.42133 60.512 13.968C63.2427 19.4293 64.608 27.408 64.608 37.904C64.608 47.9733 63.2853 55.7813 60.64 61.328C57.9947 66.7893 54.2827 70.544 49.504 72.592C44.8107 74.64 38.9227 75.664 31.84 75.664C21.6 75.664 13.7493 72.976 8.288 67.6C2.82667 62.1387 0.0960002 52.7947 0.0960002 39.568C0.0960002 26.256 2.74133 16.3573 8.032 9.87199C13.3227 3.38666 21.216 0.143997 31.712 0.143997ZM32.48 59.152C36.7467 59.152 39.52 57.488 40.8 54.16C42.08 50.7467 42.72 45.4133 42.72 38.16C42.72 30.736 41.952 25.2747 40.416 21.776C38.88 18.192 35.9787 16.4 31.712 16.4C28.7253 16.4 26.72 16.912 25.696 17.936C24.928 18.7893 24.2453 21.3493 23.648 25.616C23.136 29.8827 22.88 34.2347 22.88 38.672C22.88 46.1813 23.6053 51.472 25.056 54.544C26.592 57.616 29.0667 59.152 32.48 59.152ZM109.582 1.03999V74H87.182V19.472L71.31 22.8L68.878 9.36L91.534 1.03999H109.582Z" fill="black"/>
</svg>
